<?xml version="1.0" ?><svg enable-background="new 0 0 64 64" id="Layer_1" version="1.1" viewBox="0 0 64 64" xml:space="preserve" xmlns="http://www.w3.org/2000/svg" xmlns:xlink="http://www.w3.org/1999/xlink"><g><g><g><g><g><path d="M4.421,42.457V7.547c0-0.603,0.517-1.121,1.121-1.121h52.925c0.603,0,1.121,0.517,1.121,1.121v34.91H4.421z"/></g></g></g><g><g><g><path d="M59.587,42.457v4.482c0,0.603-0.517,1.121-1.121,1.121H5.541c-0.603,0-1.121-0.517-1.121-1.121v-4.482       H59.587z" fill="#CFDCE5"/></g></g></g><g><g><g><rect fill="#CFDCE5" height="1.121" width="23.618" x="20.195" y="55.99"/></g></g></g><g><g><g><polygon fill="#AAC1CE" points="39.848,55.99 24.16,55.99 25.281,48.06 38.727,48.06      "/></g></g></g><g><g><g><rect fill="#FFFFFF" height="31.548" width="50.684" x="6.662" y="8.668"/></g></g></g><g><g><g><polygon fill="#8BA0AE" points="38.727,48.06 25.281,48.06 24.655,52.486 38.929,49.485      "/></g></g></g></g><g><g><g><rect fill="#8BA0AE" height="1" width="64" y="57.067"/></g></g></g></g><g><g><g><g><path d="M26.675,34.854H16.169c-0.762,0-1.379-0.617-1.379-1.379V15.41c0-0.762,0.617-1.379,1.379-1.379h10.505      c0.762,0,1.379,0.617,1.379,1.379v18.065C28.054,34.236,27.436,34.854,26.675,34.854z" fill="#FFFFFF"/></g></g><g><g><path d="M26.675,35.104H16.169c-0.898,0-1.629-0.73-1.629-1.629V15.41c0-0.898,0.73-1.629,1.629-1.629h10.506      c0.898,0,1.629,0.73,1.629,1.629v18.065C28.304,34.374,27.573,35.104,26.675,35.104z M16.169,14.281      c-0.622,0-1.129,0.507-1.129,1.129v18.065c0,0.622,0.507,1.129,1.129,1.129h10.506c0.622,0,1.129-0.507,1.129-1.129V15.41      c0-0.622-0.507-1.129-1.129-1.129H16.169z" fill="#AAC1CE"/></g></g></g><g><g><g><path d="M47.831,34.854H37.325c-0.762,0-1.379-0.617-1.379-1.379V15.41c0-0.762,0.617-1.379,1.379-1.379H47.83      c0.762,0,1.379,0.617,1.379,1.379v18.065C49.21,34.236,48.592,34.854,47.831,34.854z" fill="#FFFFFF"/></g></g><g><g><path d="M47.831,35.104H37.325c-0.898,0-1.629-0.73-1.629-1.629V15.41c0-0.898,0.73-1.629,1.629-1.629h10.506      c0.898,0,1.629,0.73,1.629,1.629v18.065C49.46,34.374,48.73,35.104,47.831,35.104z M37.325,14.281      c-0.622,0-1.129,0.507-1.129,1.129v18.065c0,0.622,0.507,1.129,1.129,1.129h10.506c0.622,0,1.129-0.507,1.129-1.129V15.41      c0-0.622-0.507-1.129-1.129-1.129H37.325z" fill="#AAC1CE"/></g></g></g><g><g><g><path d="M40.171,19.173c0.131,0.08,0.322,0.147,0.523,0.147c0.299,0,0.474-0.158,0.474-0.386      c0-0.212-0.121-0.333-0.427-0.45c-0.369-0.131-0.597-0.322-0.597-0.642c0-0.353,0.292-0.614,0.731-0.614      c0.231,0,0.399,0.054,0.5,0.111l-0.08,0.238c-0.074-0.04-0.226-0.107-0.43-0.107c-0.31,0-0.427,0.185-0.427,0.339      c0,0.212,0.138,0.315,0.45,0.437c0.382,0.147,0.577,0.332,0.577,0.665c0,0.349-0.259,0.65-0.792,0.65      c-0.219,0-0.457-0.063-0.578-0.144L40.171,19.173z" fill="#8BA0AE"/></g></g><g><g><path d="M43.037,19.468c-0.077,0.04-0.248,0.094-0.467,0.094c-0.49,0-0.809-0.332-0.809-0.829      c0-0.5,0.342-0.862,0.872-0.862c0.175,0,0.329,0.044,0.41,0.084l-0.067,0.229c-0.07-0.041-0.182-0.078-0.343-0.078      c-0.372,0-0.573,0.275-0.573,0.615c0,0.376,0.241,0.607,0.563,0.607c0.168,0,0.278-0.044,0.362-0.081L43.037,19.468z" fill="#8BA0AE"/></g></g><g><g><path d="M44.835,18.703c0,0.602-0.417,0.863-0.81,0.863c-0.439,0-0.778-0.322-0.778-0.836      c0-0.544,0.355-0.863,0.806-0.863C44.519,17.867,44.835,18.207,44.835,18.703z M43.546,18.72c0,0.355,0.204,0.624,0.493,0.624      c0.282,0,0.493-0.266,0.493-0.631c0-0.275-0.138-0.625-0.486-0.625C43.696,18.088,43.546,18.411,43.546,18.72z" fill="#8BA0AE"/></g></g><g><g><path d="M45.21,18.411c0-0.191-0.003-0.355-0.014-0.507h0.259l0.01,0.319h0.014      c0.074-0.219,0.252-0.356,0.45-0.356c0.033,0,0.057,0.004,0.083,0.011v0.278c-0.029-0.007-0.06-0.01-0.101-0.01      c-0.208,0-0.355,0.157-0.396,0.379c-0.007,0.04-0.014,0.088-0.014,0.138v0.866H45.21V18.411z" fill="#8BA0AE"/></g></g><g><g><path d="M46.44,18.77c0.007,0.399,0.263,0.564,0.558,0.564c0.212,0,0.339-0.037,0.45-0.084l0.05,0.211      c-0.104,0.047-0.282,0.101-0.54,0.101c-0.5,0-0.799-0.328-0.799-0.818s0.288-0.877,0.762-0.877c0.53,0,0.671,0.467,0.671,0.766      c0,0.061-0.006,0.107-0.01,0.138L46.44,18.77L46.44,18.77z M47.307,18.559c0.004-0.188-0.077-0.48-0.409-0.48      c-0.299,0-0.43,0.275-0.453,0.48H47.307z" fill="#8BA0AE"/></g></g></g><g><g><g><path d="M17.736,19.173c0.131,0.08,0.322,0.147,0.523,0.147c0.299,0,0.474-0.158,0.474-0.386      c0-0.212-0.121-0.333-0.427-0.45c-0.369-0.131-0.598-0.322-0.598-0.642c0-0.353,0.293-0.614,0.732-0.614      c0.231,0,0.399,0.054,0.5,0.111l-0.08,0.238c-0.074-0.04-0.226-0.107-0.43-0.107c-0.31,0-0.427,0.185-0.427,0.339      c0,0.212,0.138,0.315,0.45,0.437c0.383,0.147,0.577,0.332,0.577,0.665c0,0.349-0.259,0.65-0.792,0.65      c-0.219,0-0.457-0.063-0.578-0.144L17.736,19.173z" fill="#8BA0AE"/></g></g><g><g><path d="M20.603,19.468c-0.077,0.04-0.249,0.094-0.467,0.094c-0.49,0-0.809-0.332-0.809-0.829      c0-0.5,0.342-0.862,0.872-0.862c0.175,0,0.329,0.044,0.41,0.084l-0.067,0.229c-0.07-0.041-0.182-0.078-0.343-0.078      c-0.372,0-0.573,0.275-0.573,0.615c0,0.376,0.241,0.607,0.563,0.607c0.168,0,0.278-0.044,0.362-0.081L20.603,19.468z" fill="#8BA0AE"/></g></g><g><g><path d="M22.4,18.703c0,0.602-0.417,0.863-0.81,0.863c-0.439,0-0.778-0.322-0.778-0.836      c0-0.544,0.355-0.863,0.806-0.863C22.084,17.867,22.4,18.207,22.4,18.703z M21.111,18.72c0,0.355,0.204,0.624,0.493,0.624      c0.282,0,0.493-0.266,0.493-0.631c0-0.275-0.138-0.625-0.486-0.625C21.262,18.088,21.111,18.411,21.111,18.72z" fill="#8BA0AE"/></g></g><g><g><path d="M22.775,18.411c0-0.191-0.004-0.355-0.014-0.507h0.259l0.01,0.319h0.014      c0.074-0.219,0.252-0.356,0.45-0.356c0.033,0,0.057,0.004,0.084,0.011v0.278c-0.03-0.007-0.061-0.01-0.102-0.01      c-0.208,0-0.355,0.157-0.396,0.379c-0.007,0.04-0.014,0.088-0.014,0.138v0.866h-0.292L22.775,18.411L22.775,18.411z" fill="#8BA0AE"/></g></g><g><g><path d="M24.006,18.77c0.007,0.399,0.262,0.564,0.558,0.564c0.212,0,0.339-0.037,0.45-0.084l0.05,0.211      c-0.104,0.047-0.282,0.101-0.54,0.101c-0.5,0-0.799-0.328-0.799-0.818s0.288-0.877,0.762-0.877c0.53,0,0.671,0.467,0.671,0.766      c0,0.061-0.006,0.107-0.01,0.138L24.006,18.77L24.006,18.77z M24.872,18.559c0.004-0.188-0.077-0.48-0.409-0.48      c-0.299,0-0.43,0.275-0.453,0.48H24.872z" fill="#8BA0AE"/></g></g></g><g><g><g><g><g><rect fill="#AAC1CE" height="0.5" width="3.697" x="40.4" y="22.184"/></g></g></g><g><g><g><rect fill="#AAC1CE" height="0.5" width="5.916" x="40.4" y="24.192"/></g></g></g></g><g><g><g><g><rect fill="#AAC1CE" height="0.5" width="5.916" x="40.4" y="26.201"/></g></g></g><g><g><g><rect fill="#AAC1CE" height="0.5" width="5.916" x="40.4" y="28.209"/></g></g></g><g><g><g><rect fill="#AAC1CE" height="0.5" width="5.916" x="40.4" y="30.216"/></g></g></g></g></g><g><g><g><g><g><rect fill="#AAC1CE" height="0.5" width="3.697" x="19.564" y="22.184"/></g></g></g><g><g><g><rect fill="#AAC1CE" height="0.5" width="5.916" x="17.346" y="24.192"/></g></g></g></g><g><g><g><g><rect fill="#AAC1CE" height="0.5" width="5.916" x="17.346" y="26.201"/></g></g></g><g><g><g><rect fill="#AAC1CE" height="0.5" width="5.916" x="17.346" y="28.209"/></g></g></g><g><g><g><rect fill="#AAC1CE" height="0.5" width="5.916" x="17.346" y="30.216"/></g></g></g></g></g><g><g><g><path d="M38.895,37.437h-13.79c-1,0-1.81-0.811-1.81-1.81V13.258c0-1,0.811-1.81,1.81-1.81h13.79      c1,0,1.81,0.811,1.81,1.81v22.368C40.705,36.626,39.895,37.437,38.895,37.437z" fill="#FFFFFF"/></g></g><g><g><path d="M38.895,37.687h-13.79c-1.136,0-2.061-0.925-2.061-2.061V13.258c0-1.136,0.925-2.061,2.061-2.061h13.789      c1.136,0,2.061,0.925,2.061,2.061v22.368C40.955,36.762,40.03,37.687,38.895,37.687z M25.105,11.698      c-0.86,0-1.561,0.7-1.561,1.561v22.368c0,0.86,0.7,1.561,1.561,1.561h13.789c0.86,0,1.561-0.7,1.561-1.561V13.258      c0-0.86-0.7-1.561-1.561-1.561H25.105V11.698z" fill="#AAC1CE"/></g></g></g><g><g><g><path d="M27.032,17.2c0.182,0.111,0.446,0.205,0.726,0.205c0.415,0,0.656-0.219,0.656-0.536      c0-0.293-0.167-0.46-0.591-0.623c-0.512-0.182-0.828-0.447-0.828-0.889c0-0.489,0.404-0.852,1.015-0.852      c0.321,0,0.554,0.074,0.693,0.153l-0.112,0.33c-0.102-0.056-0.312-0.148-0.596-0.148c-0.428,0-0.591,0.256-0.591,0.47      c0,0.293,0.191,0.438,0.624,0.605c0.53,0.204,0.801,0.46,0.801,0.921c0,0.484-0.358,0.903-1.099,0.903      c-0.303,0-0.633-0.089-0.801-0.2L27.032,17.2z" fill="#E81241"/></g></g><g><g><path d="M31.006,17.609c-0.107,0.056-0.345,0.131-0.646,0.131c-0.68,0-1.122-0.461-1.122-1.149      c0-0.694,0.475-1.196,1.21-1.196c0.242,0,0.456,0.061,0.568,0.116l-0.094,0.316c-0.098-0.056-0.251-0.107-0.475-0.107      c-0.517,0-0.796,0.382-0.796,0.852c0,0.521,0.335,0.843,0.782,0.843c0.232,0,0.386-0.061,0.503-0.111L31.006,17.609z" fill="#E81241"/></g></g><g><g><path d="M33.498,16.548c0,0.833-0.577,1.195-1.121,1.195c-0.61,0-1.08-0.446-1.08-1.158      c0-0.754,0.493-1.196,1.117-1.196C33.061,15.389,33.498,15.859,33.498,16.548z M31.711,16.571c0,0.494,0.284,0.866,0.685,0.866      c0.391,0,0.684-0.368,0.684-0.875c0-0.382-0.19-0.865-0.675-0.865C31.921,15.697,31.711,16.143,31.711,16.571z" fill="#E81241"/></g></g><g><g><path d="M34.019,16.143c0-0.266-0.005-0.493-0.019-0.703h0.358l0.014,0.442h0.019      c0.103-0.303,0.35-0.493,0.624-0.493c0.046,0,0.079,0.005,0.116,0.014v0.387c-0.042-0.01-0.084-0.014-0.14-0.014      c-0.289,0-0.493,0.219-0.549,0.525c-0.01,0.056-0.019,0.121-0.019,0.19v1.201h-0.405L34.019,16.143L34.019,16.143z" fill="#E81241"/></g></g><g><g><path d="M35.724,16.641c0.01,0.554,0.363,0.782,0.772,0.782c0.294,0,0.471-0.052,0.624-0.117l0.07,0.294      c-0.145,0.064-0.392,0.14-0.75,0.14c-0.693,0-1.107-0.456-1.107-1.136s0.4-1.215,1.057-1.215c0.735,0,0.931,0.646,0.931,1.062      c0,0.083-0.01,0.148-0.014,0.19H35.724z M36.925,16.348c0.005-0.261-0.107-0.666-0.567-0.666c-0.415,0-0.596,0.382-0.629,0.666      H36.925z" fill="#E81241"/></g></g></g><g><g><g><g><g><rect fill="#32BEA6" height="3.997" width="11.479" x="26.26" y="31.183"/></g></g></g><g opacity="0.35"><g><g><g><polygon fill="#FFFFFF" points="26.26,33.712 26.26,31.183 28.79,31.183        "/></g></g></g></g></g></g><g><g><g><rect fill="#E81241" height="0.5" width="3.912" x="30.044" y="20.502"/></g></g></g><g><g><g><g><rect fill="#AAC1CE" height="0.5" width="11.479" x="26.261" y="22.51"/></g></g></g><g><g><g><rect fill="#AAC1CE" height="0.5" width="11.479" x="26.261" y="24.518"/></g></g></g><g><g><g><rect fill="#AAC1CE" height="0.5" width="11.479" x="26.261" y="26.527"/></g></g></g><g><g><g><rect fill="#AAC1CE" height="0.5" width="11.479" x="26.261" y="28.535"/></g></g></g></g></g></svg>