<?xml version="1.0" ?><svg data-name="Layer 1" id="Layer_1" viewBox="0 0 64 64" xmlns="http://www.w3.org/2000/svg"><defs><style>.cls-1{fill:#d9ebf4;}.cls-2{fill:#c6e2f4;}.cls-3,.cls-32,.cls-41,.cls-44{fill:none;}.cls-3,.cls-32{stroke:#041256;stroke-linejoin:round;}.cls-3,.cls-32,.cls-41{stroke-linecap:round;}.cls-3{stroke-width:2px;}.cls-4{fill:#b9dcea;}.cls-5{fill:#fff;}.cls-6{fill:#8db9d3;}.cls-7{fill:#65ceb5;}.cls-8{fill:#3dc18b;}.cls-9{fill:#67dba9;}.cls-10{fill:#14918e;}.cls-11{fill:#42567c;}.cls-12{fill:#56709b;}.cls-13{fill:#384666;}.cls-14{fill:#041256;}.cls-15{fill:#4098e2;}.cls-16{fill:#59c3f7;}.cls-17{fill:#a7aec1;}.cls-18{fill:#b8bdcc;}.cls-19{fill:#d9dde8;}.cls-20{fill:#83e7ea;}.cls-21{fill:#efab89;}.cls-22{fill:#fcc3a9;}.cls-23{fill:#dd8573;}.cls-24{fill:#172a72;}.cls-25{fill:#7db0cc;}.cls-26{fill:#b74976;}.cls-27{fill:#a53568;}.cls-28{fill:#80f9ea;}.cls-29{fill:#6fc8dd;}.cls-30{fill:#dd669c;}.cls-31{fill:#dae4ef;}.cls-33{fill:#5d86d8;}.cls-34{fill:#77a3e8;}.cls-35{fill:#4a76ce;}.cls-36{fill:#3268bf;}.cls-37{fill:#77bc94;}.cls-38{fill:#8dc9a8;}.cls-39{fill:#66af83;}.cls-40{fill:#a3e2be;}.cls-41,.cls-44{stroke:#a3e2be;stroke-miterlimit:10;stroke-width:0.5px;}.cls-42{fill:#96b8ea;}.cls-43{fill:#b8f4d0;}</style></defs><title/><path class="cls-1" d="M11.7,16.36h2.43a.76.76,0,0,0,0-1.52H12.92a.46.46,0,0,1-.46-.46.46.46,0,0,0-.46-.46H9.58a.76.76,0,1,0,0,1.52h1.21a.46.46,0,0,1,.46.46A.46.46,0,0,0,11.7,16.36Z"/><path class="cls-1" d="M9.74,17.55H8.33a.26.26,0,0,0-.26.26.26.26,0,0,1-.26.26h-.7a.44.44,0,0,0,0,.88H8.5a.26.26,0,0,0,.26-.26A.26.26,0,0,1,9,18.44h.7a.44.44,0,0,0,0-.88Z"/><path class="cls-1" d="M14.45,9.86H13a.26.26,0,0,0-.26.26.26.26,0,0,1-.26.26h-.7a.44.44,0,1,0,0,.88h1.41a.26.26,0,0,0,.26-.26.26.26,0,0,1,.26-.26h.7a.44.44,0,1,0,0-.88Z"/><circle class="cls-1" cx="11.85" cy="24.46" r="0.63"/><circle class="cls-1" cx="11.86" cy="19.41" r="0.61"/><circle class="cls-1" cx="14.89" cy="20.66" r="0.98"/><circle class="cls-1" cx="15.48" cy="13.05" r="0.32"/><circle class="cls-1" cx="5.49" cy="20.66" r="0.39"/><circle class="cls-1" cx="8.42" cy="21.87" r="1.02"/><circle class="cls-1" cx="4.45" cy="17.91" r="0.35"/><path class="cls-1" d="M12.17,29.36h0a.5.5,0,0,1,.5-.5h2.67a.83.83,0,0,1,.83.83h0a.83.83,0,0,1-.83.83H14a.5.5,0,0,0-.5.5h0a.5.5,0,0,1-.5.5H10.34a.83.83,0,0,1-.83-.83h0a.83.83,0,0,1,.83-.83h1.33A.5.5,0,0,0,12.17,29.36Z"/><path class="cls-1" d="M17,33.13h0a.29.29,0,0,0-.29-.29H15.17a.48.48,0,0,0-.48.48h0a.48.48,0,0,0,.48.48h.77a.29.29,0,0,1,.29.29h0a.29.29,0,0,0,.29.29h1.55a.48.48,0,0,0,.48-.48h0a.48.48,0,0,0-.48-.48H17.3A.29.29,0,0,1,17,33.13Z"/><circle class="cls-1" cx="13.71" cy="41.03" r="0.7"/><circle class="cls-1" cx="12.83" cy="34.88" r="0.67"/><circle class="cls-1" cx="9.5" cy="36.25" r="1.08"/><circle class="cls-1" cx="8.85" cy="27.88" r="0.35"/><circle class="cls-1" cx="19.83" cy="36.25" r="0.43"/><circle class="cls-1" cx="16.62" cy="37.58" r="1.12"/><circle class="cls-1" cx="20.98" cy="33.22" r="0.39"/><path class="cls-2" d="M3,60.36V33.08a.89.89,0,0,1,.89-.89h.93a.89.89,0,0,1,.89.89v2.27a.89.89,0,0,0,.89.89h3a.89.89,0,0,1,.89.89V47.51a.89.89,0,0,0,.89.89h1.85a.89.89,0,0,1,.89.89v6.54a.89.89,0,0,0,.89.89h.9a.89.89,0,0,0,.89-.89V54.69a.89.89,0,0,1,.89-.89h.81a.89.89,0,0,0,.89-.89V51.38a.89.89,0,0,1,.89-.89H25a.89.89,0,0,0,.89-.89v-.91a.89.89,0,0,1,.89-.89H42.2a.89.89,0,0,1,.63.26L47,52.19a.89.89,0,0,0,.63.26h1.24a.89.89,0,0,1,.89.89v3a.89.89,0,0,0,.89.89h.51a.89.89,0,0,0,.89-.89v-.52a.89.89,0,0,1,.89-.89h.65a.89.89,0,0,0,.89-.89.89.89,0,0,1,.89-.89H60a.89.89,0,0,1,.89.89v6.31Z"/><line class="cls-3" x1="2.91" x2="60.91" y1="60.36" y2="60.36"/><path class="cls-1" d="M25.69,3.64H44.94a5.64,5.64,0,0,1,4,1.65L59.44,15.8a5.64,5.64,0,0,1,1.65,4V54.26A6.11,6.11,0,0,1,55,60.36H25.69a6.11,6.11,0,0,1-6.11-6.11V9.74A6.11,6.11,0,0,1,25.69,3.64Z"/><path class="cls-4" d="M26.7,14.61l3.17,3.17a6.09,6.09,0,0,1,1.78,4.3v4.39l9.19-5.12L30.56,11.07"/><path class="cls-5" d="M21.46,56.44V11.93a6.11,6.11,0,0,1,6.11-6.11H46.82a5.64,5.64,0,0,1,4,1.65L60.31,17a5.6,5.6,0,0,0-.88-1.18L48.92,5.29a5.64,5.64,0,0,0-4-1.65H25.69a6.11,6.11,0,0,0-6.11,6.11V54.26a6.09,6.09,0,0,0,2.55,5A6.07,6.07,0,0,1,21.46,56.44Z"/><path class="cls-5" d="M25.59,3.64a6.1,6.1,0,0,0-4,5.73V53.89A6.11,6.11,0,0,0,27.67,60H57.07a6.08,6.08,0,0,1-2.08.37H25.69a6.11,6.11,0,0,1-6.11-6.11V9.74A6.1,6.1,0,0,1,25.59,3.64Z"/><path class="cls-4" d="M52.93,19.37a7.57,7.57,0,0,1-7.57-7.57V3.68a5.61,5.61,0,0,1,1.85.45c.06.06.14.1.2.16l13,13c.06.06.11.14.16.2A5.62,5.62,0,0,1,61,19.37Z"/><path class="cls-4" d="M31.43,49.84h0A50.37,50.37,0,0,0,46.18,14.23V7.47l6.33,1.4,6.93,6.93a5.64,5.64,0,0,1,1.65,4V54.26A6.11,6.11,0,0,1,55,60.36H25.69a6.1,6.1,0,0,1-6.08-5.62A16.72,16.72,0,0,0,31.43,49.84Z"/><path class="cls-1" d="M24.5,60.24a6,6,0,0,1-1-.3l-.09,0a6.07,6.07,0,0,1-.91-.47l-.09-.05a6.12,6.12,0,0,1-.81-.62l-.07-.06a6.13,6.13,0,0,1-.69-.77l0-.06a6.12,6.12,0,0,1-.55-.9l0,0a6.07,6.07,0,0,1-.39-1v0a6.1,6.1,0,0,1-.2-1.13h0a16.66,16.66,0,0,0,2-.13A6.1,6.1,0,0,0,27.67,60H57.07a6.26,6.26,0,0,1-1,.27H56a5.94,5.94,0,0,1-1,.09H25.69a6.12,6.12,0,0,1-1.13-.11Z"/><path class="cls-6" d="M46.16,15.17c0-.31,0-.63,0-.94V7.47l5.66,1.25,8.6,8.6c.06.06.11.14.16.2h0a5.22,5.22,0,0,1,.28.84l0,.08a6.07,6.07,0,0,1,.14.93H52.93A7.56,7.56,0,0,1,46.16,15.17Z"/><path class="cls-7" d="M23.67,58.44H54.15a4.92,4.92,0,0,0,4.92-4.92V17.87a5.64,5.64,0,0,0-1.65-4l-5-5,.13,0,6.93,6.93a5.64,5.64,0,0,1,1.65,4V54.26A6.11,6.11,0,0,1,55,60.36H25.69a6.07,6.07,0,0,1-5.08-2.76A6,6,0,0,0,23.67,58.44Z"/><path class="cls-1" d="M53.38,17.45a6.11,6.11,0,0,1-6.11-6.11V3.64L61.09,17.45Z"/><path class="cls-8" d="M47.27,4.16a5.62,5.62,0,0,1,1.65,1.13L59.44,15.8a5.62,5.62,0,0,1,1.13,1.65H53.38a6.11,6.11,0,0,1-6.11-6.11Z"/><path class="cls-9" d="M56.07,12.44l3.36,3.36a5.62,5.62,0,0,1,1.13,1.65H57.5L55.06,15a1.11,1.11,0,0,1,0-1.57Z"/><path class="cls-9" d="M48.92,5.29l6.24,6.24-1,1a1.11,1.11,0,0,1-1.57,0L47.27,7.22V4.16A5.62,5.62,0,0,1,48.92,5.29Z"/><path class="cls-3" d="M25.69,3.64H44.94a5.64,5.64,0,0,1,4,1.65L59.44,15.8a5.64,5.64,0,0,1,1.65,4V54.26A6.11,6.11,0,0,1,55,60.36H25.69a6.11,6.11,0,0,1-6.11-6.11V9.74A6.11,6.11,0,0,1,25.69,3.64Z"/><path class="cls-3" d="M47.27,4.16a5.62,5.62,0,0,1,1.65,1.13L59.44,15.8a5.62,5.62,0,0,1,1.13,1.65H53.38a6.11,6.11,0,0,1-6.11-6.11Z"/><circle class="cls-10" cx="40.84" cy="29.32" r="9.29"/><circle class="cls-8" cx="40.84" cy="29.32" r="7.53"/><circle class="cls-9" cx="40.84" cy="29.32" r="6.51"/><path class="cls-11" d="M47.49,32.11a13.3,13.3,0,0,0-13.3,0,4.61,4.61,0,0,0-1.58,1.52,9.29,9.29,0,0,0,16.46,0A4.61,4.61,0,0,0,47.49,32.11Z"/><path class="cls-12" d="M34.19,33.87a13.3,13.3,0,0,1,13.3,0,4.51,4.51,0,0,1,1,.76,9.34,9.34,0,0,0,.61-1,4.61,4.61,0,0,0-1.58-1.52,13.3,13.3,0,0,0-13.3,0,4.61,4.61,0,0,0-1.58,1.52,9.32,9.32,0,0,0,.61,1A4.51,4.51,0,0,1,34.19,33.87Z"/><path class="cls-13" d="M47.49,32.11a13.29,13.29,0,0,0-8.58-1.64l-2.6,1.6,1.47,4.51a.51.51,0,0,0,.48.35.51.51,0,0,1,.49.37l.16.56H37.14a9.28,9.28,0,0,0,11.93-4.22A4.61,4.61,0,0,0,47.49,32.11Z"/><path class="cls-11" d="M46.3,31.5l-.69-.29-.29-.11-.81-.26-.15,0c-.34-.09-.69-.17-1-.24h0c-.33-.06-.66-.11-1-.14l-.16,0c-.32,0-.63-.05-.95-.06h-.09a13.36,13.36,0,0,0-2.17.14h0l-2.6,1.6.24.74a13.3,13.3,0,0,1,10.93,1.07,4.51,4.51,0,0,1,1,.76h0a9.31,9.31,0,0,0,.61-1,4.61,4.61,0,0,0-1.58-1.52c-.3-.17-.61-.33-.92-.48Z"/><path class="cls-14" d="M40.84,30.32a13.29,13.29,0,0,1,6.65,1.78,4.61,4.61,0,0,1,1.58,1.52,9.29,9.29,0,0,1-16.46,0,4.61,4.61,0,0,1,1.58-1.52,13.29,13.29,0,0,1,6.65-1.78m0-2a15.32,15.32,0,0,0-7.65,2.05,6.65,6.65,0,0,0-2.27,2.18,2,2,0,0,0-.08,2,11.29,11.29,0,0,0,20,0,2,2,0,0,0-.08-2,6.65,6.65,0,0,0-2.27-2.18,15.32,15.32,0,0,0-7.65-2.05Z"/><path class="cls-15" d="M39.87,38.61h1.94a10.22,10.22,0,0,0-.58-2.24.49.49,0,0,1,.11-.52,1.34,1.34,0,0,0,.35-.91,1.36,1.36,0,0,0-.85-1.26A1.36,1.36,0,0,0,40,34.94a1.34,1.34,0,0,0,.35.91.49.49,0,0,1,.11.52A10.22,10.22,0,0,0,39.87,38.61Z"/><path class="cls-16" d="M40.57,35.85A1.35,1.35,0,0,1,41,33.74l-.11-.06A1.36,1.36,0,0,0,40,34.94a1.34,1.34,0,0,0,.35.91.49.49,0,0,1,.11.52,10.22,10.22,0,0,0-.58,2.24h.23a10.22,10.22,0,0,1,.58-2.24A.49.49,0,0,0,40.57,35.85Z"/><path class="cls-16" d="M40.68,35.83l-.25.14a.5.5,0,0,1,.05.18l.29-.16c.3-.17.57-.35.81-.51a1.33,1.33,0,0,0,.09-.28A11,11,0,0,1,40.68,35.83Z"/><path class="cls-16" d="M40.77,36.71l.48-.29,0-.05a.44.44,0,0,1,0-.13l-.52.32-.37.21-.08.24Z"/><path class="cls-16" d="M40.77,37.44c.25-.14.48-.29.68-.43l-.05-.18c-.22.15-.46.3-.72.45l-.61.33-.05.23C40.25,37.73,40.51,37.59,40.77,37.44Z"/><path class="cls-16" d="M41.57,37.44c-.26.18-.56.38-.9.57s-.53.29-.77.41l0,.19h.06c.26-.12.54-.27.83-.44s.6-.37.85-.54Z"/><path class="cls-16" d="M41.24,38.61l.51-.34,0-.2c-.23.17-.5.35-.81.54Z"/><path class="cls-14" d="M40.84,33.68a1.36,1.36,0,0,1,.85,1.26,1.34,1.34,0,0,1-.35.91.49.49,0,0,0-.11.52,10.15,10.15,0,0,1,.57,2.2c-.3,0-.6,0-.91,0h-.09c-.31,0-.61,0-.91,0a10.15,10.15,0,0,1,.57-2.2.49.49,0,0,0-.11-.52,1.34,1.34,0,0,1-.35-.91,1.36,1.36,0,0,1,.85-1.26m0-1a1,1,0,0,0-.38.07,2.36,2.36,0,0,0-1.05,3.53,11.87,11.87,0,0,0-.52,2.12,1,1,0,0,0,.89,1.15c.32,0,.66.05,1,.05h.1c.35,0,.69,0,1-.05a1,1,0,0,0,.89-1.15,11.87,11.87,0,0,0-.52-2.12,2.36,2.36,0,0,0-1.05-3.53,1,1,0,0,0-.38-.07Z"/><path class="cls-14" d="M38.45,30.4a3.6,3.6,0,0,0,2.39,3.14,3.6,3.6,0,0,0,2.39-3.14A11.48,11.48,0,0,0,38.45,30.4Z"/><ellipse class="cls-14" cx="40.84" cy="30.6" rx="2.96" ry="1.33"/><path class="cls-17" d="M40.84,29c-1.64,0-3,.59-3,1.33l.58.11c0-.58,1.07-1.05,2.38-1.05s2.39.47,2.39,1.05l.58-.11C43.8,29.59,42.48,29,40.84,29Z"/><path class="cls-18" d="M38.45,30.4V30a.21.21,0,0,0-.36-.14l-.58.67a.57.57,0,0,0-.13.47,5.11,5.11,0,0,0,2.15,3.43.49.49,0,0,0,.62-.09l.69-.77A3.6,3.6,0,0,1,38.45,30.4Z"/><path class="cls-19" d="M39.73,34.2a5.11,5.11,0,0,1-2.15-3.43.57.57,0,0,1,.13-.47l.45-.52-.07,0-.58.67a.57.57,0,0,0-.13.47,5.11,5.11,0,0,0,2.15,3.43.49.49,0,0,0,.62-.09l.13-.15A.48.48,0,0,1,39.73,34.2Z"/><path class="cls-18" d="M43.23,30.4V30a.21.21,0,0,1,.36-.14l.58.67a.57.57,0,0,1,.13.47,5.11,5.11,0,0,1-2.15,3.43.49.49,0,0,1-.62-.09l-.69-.77A3.6,3.6,0,0,0,43.23,30.4Z"/><path class="cls-20" d="M44.17,30.49l-.58-.67,0,0,.54.62a.57.57,0,0,1,.13.47,5.11,5.11,0,0,1-2.15,3.43.49.49,0,0,1-.59-.07l.05.06a.49.49,0,0,0,.62.09A5.11,5.11,0,0,0,44.3,31,.57.57,0,0,0,44.17,30.49Z"/><path class="cls-14" d="M40.84,29a4,4,0,0,1,2.74.82h0l.58.67a.57.57,0,0,1,.13.47,5.11,5.11,0,0,1-2.15,3.43.48.48,0,0,1-.26.07.49.49,0,0,1-.37-.16l-.69-.77-.69.77a.49.49,0,0,1-.37.16.48.48,0,0,1-.26-.07A5.11,5.11,0,0,1,37.38,31a.57.57,0,0,1,.13-.47l.58-.67h0A4,4,0,0,1,40.84,29m0-2a6,6,0,0,0-4.15,1.4l-.07.07-.61.7a2.56,2.56,0,0,0-.6,2.13,7.1,7.1,0,0,0,3.06,4.79,2.49,2.49,0,0,0,2.38.14,2.49,2.49,0,0,0,2.38-.14,7.1,7.1,0,0,0,3.06-4.79,2.56,2.56,0,0,0-.6-2.13l-.58-.67-.09-.1A6,6,0,0,0,40.84,27Z"/><path class="cls-14" d="M40.84,20a9.29,9.29,0,1,1-9.29,9.29A9.29,9.29,0,0,1,40.84,20m0-2A11.29,11.29,0,1,0,52.13,29.32,11.31,11.31,0,0,0,40.84,18Z"/><path class="cls-21" d="M45.59,27.52V24.87A4.85,4.85,0,0,0,42,20.19h0a4.85,4.85,0,0,0-2.49,0h0a4.85,4.85,0,0,0-3.61,4.69v2.64a4.09,4.09,0,0,0,2,3.54l1.15.67a3.3,3.3,0,0,0,3.3,0l1.15-.67A4.09,4.09,0,0,0,45.59,27.52Z"/><path class="cls-22" d="M44.38,30.38,43.23,31a3.3,3.3,0,0,1-3.3,0l-1.15-.67a4.09,4.09,0,0,1-2-3.54V24.2a4.84,4.84,0,0,1,1.42-3.42,4.84,4.84,0,0,0-2.26,4.09v2.64a4.09,4.09,0,0,0,2,3.54l1.15.67a3.3,3.3,0,0,0,3.3,0l1.15-.67a4.08,4.08,0,0,0,.91-.72Z"/><path class="cls-23" d="M45.58,25.76A4.84,4.84,0,0,0,43,21.64h0l-.41-.19a4.17,4.17,0,0,0-.59-.21,4.86,4.86,0,0,0-4.37,1,5,5,0,0,0-1.72,3.89v.71h3.79a1.12,1.12,0,0,1,1.17,1.09v4.25a3.29,3.29,0,0,0,1.55-.44l1.15-.67a4.09,4.09,0,0,0,2-3.54V25.76Z"/><path class="cls-14" d="M43,20.59h0l-.41-.19a4.17,4.17,0,0,0-.59-.21,4.86,4.86,0,0,0-4.37,1,5,5,0,0,0-1.72,3.89v.71h3.77a3.3,3.3,0,0,0,2.46-1.09.35.35,0,0,1,.51,0,3.3,3.3,0,0,0,2.46,1.09h.5v-.89A4.84,4.84,0,0,0,43,20.59Z"/><path class="cls-24" d="M43,20.59h0l-.41-.19a4.17,4.17,0,0,0-.59-.21,4.85,4.85,0,0,0-1.8-.13h0a4.59,4.59,0,0,0-1.39.38l-.23.12a4.83,4.83,0,0,0-.43.24l-.26.19-.33.26-.25.25-.25.28-.23.3-.18.28c-.07.12-.14.23-.2.36s-.08.18-.12.28-.12.27-.16.41,0,.17-.06.25a4.77,4.77,0,0,0-.11.48h0a4.84,4.84,0,0,0-.06.74v.89h.69A4.87,4.87,0,0,1,37,24.14h.35a3.49,3.49,0,0,0,3-1.71,2,2,0,0,1,2.18-1l.11,0a4.19,4.19,0,0,1,.59.21l.41.19h0a4.88,4.88,0,0,1,1.66,1.44A4.86,4.86,0,0,0,43,20.59Z"/><path class="cls-3" d="M45.59,27.52V24.87A4.85,4.85,0,0,0,42,20.19h0a4.85,4.85,0,0,0-2.49,0h0a4.85,4.85,0,0,0-3.61,4.69v2.64a4.09,4.09,0,0,0,2,3.54l1.15.67a3.3,3.3,0,0,0,3.3,0l1.15-.67A4.09,4.09,0,0,0,45.59,27.52Z"/><path class="cls-21" d="M35.9,28.1h-.21a1.31,1.31,0,0,1-1.31-1.31h0a.86.86,0,0,1,.86-.86h.65Z"/><path class="cls-3" d="M35.9,28.1h-.21a1.31,1.31,0,0,1-1.31-1.31h0a.86.86,0,0,1,.86-.86h.65Z"/><path class="cls-21" d="M45.58,28.1h.21a1.31,1.31,0,0,0,1.31-1.31h0a.86.86,0,0,0-.86-.86h-.65Z"/><path class="cls-3" d="M45.58,28.1h.21a1.31,1.31,0,0,0,1.31-1.31h0a.86.86,0,0,0-.86-.86h-.65Z"/><rect class="cls-25" height="1.39" rx="0.53" ry="0.53" width="16.87" x="31.9" y="43.36"/><rect class="cls-25" height="1.39" rx="0.53" ry="0.53" width="16.87" x="31.9" y="47.12"/><rect class="cls-25" height="1.39" rx="0.53" ry="0.53" width="5.8" x="31.9" y="50.87"/><circle class="cls-5" cx="28.29" cy="12.5" r="2.65"/><path class="cls-26" d="M25.48,37.26a5.88,5.88,0,1,0-9.64,4.51,11.56,11.56,0,0,1,2.89,3.55h0a1,1,0,0,0,1.74,0h0a11.62,11.62,0,0,1,2.9-3.55A5.86,5.86,0,0,0,25.48,37.26Z"/><path class="cls-27" d="M23.43,38.21l-2.33-2.33-2.93,2.79.12.12A4.64,4.64,0,0,1,19.58,42v3.84a1,1,0,0,0,.88-.51,10.34,10.34,0,0,1,2.7-3.41l.14-.11A2.44,2.44,0,0,0,23.43,38.21Z"/><path class="cls-28" d="M22.27,32a5.87,5.87,0,0,1,.49,9.38,11.62,11.62,0,0,0-2.9,3.55h0a1,1,0,0,1-1,.51,1,1,0,0,0,1.64-.14,11.62,11.62,0,0,1,2.9-3.55A5.87,5.87,0,0,0,22.27,32Z"/><path class="cls-29" d="M24.14,39.69a5.89,5.89,0,0,1-1.39,1.7,11.62,11.62,0,0,0-2.9,3.55h0a.94.94,0,0,1-.27.31v.57h.18l.11,0,.14-.05.09,0,.13-.1.07-.06a1,1,0,0,0,.11-.15l.06-.08c.14-.26.29-.52.45-.77a9.27,9.27,0,0,1,2.25-2.62l.14-.11A2.35,2.35,0,0,0,24.14,39.69Z"/><path class="cls-30" d="M19.42,45.27a13.51,13.51,0,0,0-2.71-3.14,5.86,5.86,0,0,1-2-4.42q0-.21,0-.41a.81.81,0,0,0-.57-.85l-.36-.11a5.7,5.7,0,0,0-.08.9,5.86,5.86,0,0,0,2.17,4.58,10.7,10.7,0,0,1,2.84,3.5h0a1,1,0,0,0,1,.51l0,0Z"/><path class="cls-30" d="M19.37,31.38A5.94,5.94,0,0,0,14,35.44l.36.11a.81.81,0,0,0,1-.42,5.83,5.83,0,0,1,7.26-2.92A5.85,5.85,0,0,0,19.37,31.38Z"/><path class="cls-3" d="M25.48,37.26a5.88,5.88,0,1,0-9.64,4.51,11.56,11.56,0,0,1,2.89,3.55h0a1,1,0,0,0,1.74,0h0a11.62,11.62,0,0,1,2.9-3.55A5.86,5.86,0,0,0,25.48,37.26Z"/><circle class="cls-31" cx="19.61" cy="37.26" r="2.02"/><circle class="cls-32" cx="19.61" cy="37.26" r="2.02"/><circle class="cls-5" cx="19.61" cy="37.26" r="0.99"/><path class="cls-33" d="M19.61,45.43A14.82,14.82,0,0,0,4.79,60.24H34.42A14.82,14.82,0,0,0,19.61,45.43Z"/><path class="cls-33" d="M6.8,60.24H32.42a12.88,12.88,0,0,0-25.62,0Z"/><path class="cls-34" d="M31.81,51.85l-1.1.84a1.4,1.4,0,0,0-.31,1.88l0,0a1.38,1.38,0,0,0,2,.33l.78-.59A14.8,14.8,0,0,0,31.81,51.85Z"/><path class="cls-34" d="M32.27,55.88a1.38,1.38,0,0,0-.47,1.55,12.82,12.82,0,0,1,.61,2.82h2a14.78,14.78,0,0,0-1-5.27Z"/><path class="cls-34" d="M18.15,48.77a12.82,12.82,0,0,1,9.49,2.75,1.39,1.39,0,0,0,1.72,0l1.4-1.06A14.81,14.81,0,0,0,4.84,59c0,.41,0,.82,0,1.22h2A12.92,12.92,0,0,1,18.15,48.77Z"/><path class="cls-35" d="M7.81,60.24H31.4a12,12,0,0,0-23.59,0Z"/><path class="cls-36" d="M27.86,57.46a1,1,0,0,0-.38-.38l-2.29-1.32a1,1,0,0,0-.81-.1,5.8,5.8,0,0,1-.57.14A1,1,0,0,0,23,57c.11.57.25,1.33.37,2.14a1,1,0,0,0,1.24.86h0a1,1,0,0,1,1,.26h3A11.47,11.47,0,0,0,27.86,57.46Z"/><path class="cls-36" d="M14.67,52.86a12,12,0,0,0-6.16,7.38h4.24a2.27,2.27,0,0,1,.06-1.54,24.41,24.41,0,0,1,1.77-3.5,2.3,2.3,0,0,0,.22-2Z"/><path class="cls-37" d="M30.23,59.3a1,1,0,0,1-1.57-.66,11.58,11.58,0,0,0-.79-2.82,1,1,0,0,0-.38-.38l-2.29-1.32a1,1,0,0,0-.81-.1,5.8,5.8,0,0,1-.57.14,1,1,0,0,0-.81,1.2c.11.57.25,1.33.37,2.14a1,1,0,0,0,1.24.86h0a1,1,0,0,1,1.26.86c0,.3.08.65.12,1h8.39a14.81,14.81,0,0,0-.66-4.38A15.07,15.07,0,0,1,30.23,59.3Z"/><path class="cls-38" d="M34.36,58.9c0-.25-.05-.5-.08-.75s0-.26-.06-.39-.07-.4-.11-.6-.06-.28-.09-.42-.1-.38-.15-.57l-.09-.31a17.29,17.29,0,0,1-1.81,2,12.86,12.86,0,0,1,.46,2.33h2s0,0,0-.06q0-.52,0-1C34.38,59.07,34.37,59,34.36,58.9Z"/><path class="cls-39" d="M31,58.73c-.25.2-.52.4-.79.58a1,1,0,0,1-1.57-.66,11.58,11.58,0,0,0-.79-2.82,1,1,0,0,0-.38-.38l-2.29-1.32a1,1,0,0,0-.81-.1,5.8,5.8,0,0,1-.57.14,1,1,0,0,0-.81,1.2c.11.57.25,1.33.37,2.14a1,1,0,0,0,1.24.86h0a1,1,0,0,1,1.26.86c0,.3.08.65.12,1H31.4A12.16,12.16,0,0,0,31,58.73Z"/><path class="cls-39" d="M20.28,57.68h0a10.38,10.38,0,0,1-1.94.57.88.88,0,0,0-.7.75c-.05.39-.09.8-.12,1.23h4.25a15.92,15.92,0,0,0-.23-1.92A.89.89,0,0,0,20.28,57.68Z"/><path class="cls-37" d="M12.9,60.11l-.21-.28a2.3,2.3,0,0,1-.31-2.26,24.41,24.41,0,0,1,1.77-3.5,2.3,2.3,0,0,0,.22-2l-1.72-4.94A14.81,14.81,0,0,0,4.79,60.24H13S12.93,60.15,12.9,60.11Z"/><path class="cls-39" d="M14.24,51.72a12,12,0,0,0-6.43,8.52H13s0-.09-.08-.13l-.21-.28a2.3,2.3,0,0,1-.31-2.26,24.41,24.41,0,0,1,1.77-3.5,2.3,2.3,0,0,0,.22-2Z"/><path class="cls-37" d="M5.46,57.32A14,14,0,0,1,13,48l-.19-.56a14.9,14.9,0,0,0-5.37,4.38,14.72,14.72,0,0,0-2.41,6,7.94,7.94,0,0,0,1.13,2.37h.73A7.32,7.32,0,0,1,5.46,57.32Z"/><path class="cls-37" d="M9.18,60.24h.63a21.9,21.9,0,0,1,3.91-10l-.24-.69A21.91,21.91,0,0,0,9.18,60.24Z"/><path class="cls-38" d="M6.26,53.83l0,.08Q6,54.46,5.73,55l0,0c-.14.39-.27.78-.38,1.18,0,.1,0,.2-.08.3q-.11.43-.19.87,0,.22-.08.43c0,.29-.08.59-.11.89,0,.12,0,.24,0,.36s0,.17,0,.25c0,.24,0,.47,0,.71,0,.05,0,.1,0,.15h2a12.92,12.92,0,0,1,6.89-10.1l-1-3A15,15,0,0,0,6.26,53.83Z"/><path class="cls-34" d="M21.07,46a22.15,22.15,0,0,0-2.94,0A14.87,14.87,0,0,0,4.85,57.25v.12a7.72,7.72,0,0,0,1.26,2.88h.73a7.32,7.32,0,0,1-1.38-2.93A14.2,14.2,0,0,1,16.89,46.74c-4,1.89-7,7.71-7.71,13.5H9.8c.83-6.11,4.28-12.38,8.58-13.4-1.65,2-2.73,8-3,13.4H16c.37-7,2-13.55,3.63-13.55s3.27,6.56,3.63,13.55h.6c-.29-5.37-1.36-11.36-3-13.4,4.31,1,7.75,7.3,8.58,13.4H30c-.75-5.78-3.73-11.61-7.71-13.5A14.2,14.2,0,0,1,33.75,57.32a7.32,7.32,0,0,1-1.38,2.93h.73a7.72,7.72,0,0,0,1.26-2.88v-.12A14.88,14.88,0,0,0,21.07,46Z"/><path class="cls-40" d="M33.46,56.26c.11.35.21.7.3,1.05a7.32,7.32,0,0,1-1.38,2.93h.73a7.94,7.94,0,0,0,1.13-2.37,14.75,14.75,0,0,0-.46-2Z"/><path class="cls-40" d="M29.91,59.43a1,1,0,0,1-.63,0c0,.28.08.56.12.85H30C30,60,30,59.7,29.91,59.43Z"/><path class="cls-40" d="M23.37,57.5a1,1,0,0,0,.32.61c-.11-1.23-.26-2.45-.44-3.63a1,1,0,0,0-.25.88C23.11,55.93,23.25,56.69,23.37,57.5Z"/><path class="cls-33" d="M22.49,50.81l-.66-.15a48.14,48.14,0,0,1,1.4,9.59h.61A49.68,49.68,0,0,0,22.49,50.81Z"/><path class="cls-33" d="M27.3,53.23a23.47,23.47,0,0,1,2.12,7H30a24.15,24.15,0,0,0-1.53-5.84A12.07,12.07,0,0,0,27.3,53.23Z"/><path class="cls-33" d="M15.37,60.24H16a48.15,48.15,0,0,1,1.4-9.59l-.66.15A49.69,49.69,0,0,0,15.37,60.24Z"/><path class="cls-33" d="M10.71,54.41a24.16,24.16,0,0,0-1.53,5.84H9.8a23.47,23.47,0,0,1,2.12-7A12.06,12.06,0,0,0,10.71,54.41Z"/><path class="cls-38" d="M23.37,57.5a1,1,0,0,0,.32.61c-.11-1.23-.26-2.45-.45-3.62a1,1,0,0,0-.24.87C23.11,55.93,23.25,56.69,23.37,57.5Z"/><path class="cls-38" d="M29.28,59.39c0,.28.08.57.12.85H30c0-.27-.06-.54-.11-.81A1,1,0,0,1,29.28,59.39Z"/><path class="cls-41" d="M34.42,60.24a14.81,14.81,0,0,0-.66-4.38,15.07,15.07,0,0,1-3.54,3.44,1,1,0,0,1-1.57-.66,11.58,11.58,0,0,0-.79-2.82,1,1,0,0,0-.38-.38l-2.29-1.32a1,1,0,0,0-.81-.1,5.8,5.8,0,0,1-.57.14,1,1,0,0,0-.81,1.2c.11.57.25,1.33.37,2.14a1,1,0,0,0,1.24.86h0a1,1,0,0,1,1.26.86c0,.3.08.65.12,1"/><path class="cls-41" d="M21.73,60.24a15.92,15.92,0,0,0-.23-1.92.89.89,0,0,0-1.22-.65h0a10.38,10.38,0,0,1-1.94.57.88.88,0,0,0-.7.75c-.05.39-.09.8-.12,1.23"/><path class="cls-40" d="M5.46,57.32A14,14,0,0,1,13,48l-.19-.56a14.9,14.9,0,0,0-5.37,4.38,14.72,14.72,0,0,0-2.41,6,7.94,7.94,0,0,0,1.13,2.37h.73A7.32,7.32,0,0,1,5.46,57.32Z"/><path class="cls-40" d="M9.18,60.24h.63a21.9,21.9,0,0,1,3.91-10l-.24-.69A21.91,21.91,0,0,0,9.18,60.24Z"/><path class="cls-38" d="M10.71,54.41a24,24,0,0,0-1.53,5.84H9.8a23.48,23.48,0,0,1,2.11-7A12.08,12.08,0,0,0,10.71,54.41Z"/><path class="cls-42" d="M18.13,46A15.21,15.21,0,0,0,7.51,51.71,14.65,14.65,0,0,0,5,57.88a7.91,7.91,0,0,0,1.13,2.37h.68v-.05a7.3,7.3,0,0,1-1.34-2.88A14.2,14.2,0,0,1,16.89,46.74a11.24,11.24,0,0,0-4.31,4.05A12.86,12.86,0,0,1,13.92,50a8.49,8.49,0,0,1,4.46-3.18,7.62,7.62,0,0,0-1.07,2.06l.67-.1c.51-1.32,1.08-2.11,1.63-2.11s1.11.79,1.63,2.11l.67.1a7.62,7.62,0,0,0-1.07-2.06A8.51,8.51,0,0,1,25.3,50a12.91,12.91,0,0,1,1.32.75,11.23,11.23,0,0,0-4.3-4,14.63,14.63,0,0,1,7.88,4.16l.48-.36A15.31,15.31,0,0,0,21.07,46,22.15,22.15,0,0,0,18.13,46Z"/><path class="cls-43" d="M7.55,51.67l0,.07L7.31,52l-.37.57L6.71,53c-.1.18-.2.37-.3.55s-.22.45-.33.68-.17.38-.25.58-.14.35-.2.53-.14.43-.21.64-.15.53-.22.8-.08.33-.11.49-.08.4-.12.6H5a7.92,7.92,0,0,0,1.13,2.37h.68v-.05a7.29,7.29,0,0,1-1.34-2.88A14,14,0,0,1,13,48l-.19-.56A15,15,0,0,0,7.55,51.67Z"/><path class="cls-40" d="M13.49,49.56q-.47.58-.91,1.23l.17-.11.33-.2.61-.34Z"/><path class="cls-41" d="M13,60.24s0-.09-.08-.13l-.21-.28a2.3,2.3,0,0,1-.31-2.26,24.41,24.41,0,0,1,1.77-3.5,2.3,2.3,0,0,0,.22-2l-1.72-4.94A14.81,14.81,0,0,0,4.79,60.24"/><path class="cls-43" d="M33.08,55.26a13.59,13.59,0,0,1,.67,2.06,7.3,7.3,0,0,1-1.34,2.88v0h.69a7.91,7.91,0,0,0,1.12-2.37,14.78,14.78,0,0,0-.77-2.9Z"/><path class="cls-3" d="M4.79,60.24a14.82,14.82,0,1,1,29.63,0"/><circle class="cls-39" cx="17.12" cy="57" r="0.51"/><circle class="cls-44" cx="17.12" cy="57" r="0.51"/><line class="cls-3" x1="2.91" x2="60.91" y1="60.36" y2="60.36"/></svg>