<?xml version="1.0" ?><svg data-name="Layer 1 copy" id="Layer_1_copy" viewBox="0 0 64 64" xmlns="http://www.w3.org/2000/svg"><defs><style>.cls-1{fill:#484848;}.cls-2{fill:#ee5f3e;}.cls-3{fill:#d84b34;}.cls-4{fill:#f8c09d;}.cls-5{fill:#0297c6;}.cls-6{fill:#0171ab;}</style></defs><title/><path class="cls-1" d="M17.869,40.071a1,1,0,0,1-.707-.293l-4.243-4.243a1,1,0,0,1,0-1.414l2.829-2.828,1.414,1.414L15.04,34.828l2.829,2.829,2.121-2.122L21.4,36.949l-2.828,2.829A1,1,0,0,1,17.869,40.071Z"/><rect class="cls-2" height="10" transform="translate(32.204 3.223) rotate(45)" width="14" x="5.212" y="35.485"/><path class="cls-3" d="M32.907,6H27.513a3.991,3.991,0,0,1-3.328-1.781l-1.11-1.664,1.664-1.11,1.11,1.664A2,2,0,0,0,27.513,4h5.394Z"/><path class="cls-4" d="M33.629,17a6.5,6.5,0,1,1,6.5-6.5A6.508,6.508,0,0,1,33.629,17Z"/><g data-name="&lt;Group&gt;" id="_Group_"><path class="cls-4" d="M44,35l4.73-.95.69,2.4a2.4,2.4,0,0,1,.1.69,2.506,2.506,0,0,1-4.91.7l-.8-2.78Z"/><path class="cls-4" d="M19.06,31.14l1.86,4.66-2.57,1.29a2.5,2.5,0,1,1-2.24-4.48Z"/><path class="cls-5" d="M31,34h8l.18-.02L39.4,36l-.34,3.42,2.62,7.34L53.2,55.4A2.013,2.013,0,0,1,54,57l-3,4H48l2-3L38.8,49.6a2.034,2.034,0,0,1-.68-.93L34.8,39.39l-6.05,6.66L23.88,59.67A1.984,1.984,0,0,1,22,61H18V59a2.006,2.006,0,0,1,2-2h.59l4.53-12.67a1.762,1.762,0,0,1,.4-.67L31.57,37l-.72-2.96Z"/><path class="cls-5" d="M37.05,18.54l8.71,6.89a2.839,2.839,0,0,1,.5.54,2.46,2.46,0,0,1,.35.73l2.12,7.35L44,35l-.19.06-1.79-6.21-3.74-2.96-.58-5.22a2.768,2.768,0,0,0-.1-.5,1.266,1.266,0,0,0-.06-.18c-.04-.1-.08-.2-.12-.29a.941.941,0,0,0-.12-.22,1.2,1.2,0,0,0-.13-.21,1.245,1.245,0,0,0-.15-.19,1.448,1.448,0,0,0-.17-.18,2.9,2.9,0,0,0-1.67-.86A2.393,2.393,0,0,1,37.05,18.54Z"/><path class="cls-5" d="M32.67,18.29a2.5,2.5,0,0,1,1.04,3.38l-5.2,9.81a2.319,2.319,0,0,1-.44.6,2.509,2.509,0,0,1-.65.47l-6.5,3.25-1.86-4.66,5.41-2.71,4.82-9.1a2.519,2.519,0,0,1,1.97-1.32,1.77,1.77,0,0,1,.23-.01h.01A2.471,2.471,0,0,1,32.67,18.29Z"/><path class="cls-6" d="M33.71,21.67a2.5,2.5,0,0,0-1.04-3.38A2.471,2.471,0,0,0,31.5,18h3.22a2.316,2.316,0,0,1,.46.04c-.02-.01-.04,0-.06,0a2.979,2.979,0,0,1,1.73.86c.06.06.11.12.17.18s.1.13.15.19.09.14.13.21.08.14.12.22.08.19.12.29l.06.18a2.768,2.768,0,0,1,.1.5l.58,5.22.9,8.09L39,34H31l-.15.04-1.16-4.77Z"/></g></svg>