<?xml version="1.0" ?><!DOCTYPE svg  PUBLIC '-//W3C//DTD SVG 1.1//EN'  'http://www.w3.org/Graphics/SVG/1.1/DTD/svg11.dtd'><svg enable-background="new 0 0 49 49" id="Layer_1" version="1.1" viewBox="0 0 49 49" xml:space="preserve" xmlns="http://www.w3.org/2000/svg" xmlns:xlink="http://www.w3.org/1999/xlink"><g><g><path d="M29.459,13.846l2.971,3.729c0.929,1.166,1.034,2.788,0.262,4.064l-1.26,2.084    c-0.58,0.959-1.755,1.375-2.809,0.995l-3.255-1.175c-1.544-0.557-2.055-2.486-0.991-3.735L29.459,13.846z" fill="#478E87"/></g><g><g><g><g><g><g><path d="M21.96,10.114c0.229,1.258,0.926,2.235,2.58,2.235c1.6,0,2.418-1.074,2.618-2.256         c0.308-1.797,0.429-4.207,0.286-6.547c-0.108-1.752-1.022-2.178-2.221-1.711c-0.318,0.124-0.955,0.141-1.274,0         c-1.177-0.522-2.21-0.04-2.318,1.711C21.488,5.895,21.628,8.313,21.96,10.114z" fill="#AA6F11"/></g></g></g><g><g><g><g><g><path d="M21.645,3.531c0,0,0.002-0.177,0.01-0.267c0.138-1.654,1.424-2.883,2.883-2.883           c1.459,0,2.745,1.229,2.883,2.883c0.007,0.09,0.01,0.267,0.01,0.267H21.645z" fill="#AA6F11"/></g></g></g></g></g><g><g><g><g><g><g><g><path d="M23.37,9.768V6.491h2.318v3.276c0,0.64-0.519,1.159-1.159,1.159h0             C23.889,10.927,23.37,10.408,23.37,9.768z" fill="#FECB00"/></g></g></g></g></g></g></g><g><g><g><path d="M24.735,1.927c0.186-0.012,0.362-0.044,0.488-0.093c1.2-0.467,2.113-0.04,2.221,1.711         c0.143,2.34,0.022,4.75-0.286,6.547c-0.191,1.133-0.952,2.163-2.423,2.248C26.57,8.287,25.419,5.181,24.735,1.927z" fill="#AA6F11"/></g></g></g><g><g><g><path d="M24.344,1.927c-0.186-0.012-0.362-0.044-0.488-0.093c-1.2-0.467-2.113-0.04-2.221,1.711         c-0.143,2.34-0.022,4.75,0.286,6.547c0.191,1.133,0.952,2.163,2.423,2.248C22.509,8.287,23.661,5.181,24.344,1.927z" fill="#AA6F11"/></g></g></g><g><g><path d="M26.776,3.435c0.074,0.32,0.115,0.66,0.115,1.014c0,1.824-1.057,3.302-2.361,3.302        c-1.304,0-2.361-1.478-2.361-3.302c0-0.354,0.041-0.694,0.115-1.014C24.353,4.493,25.278,2.627,26.776,3.435z" fill="#FECB00"/></g></g></g><g><path d="M29.913,21.468c1.066,3.778-0.267,7.278-0.517,13.153l1.583,12.167h-1.134l-3.741-10.542l-1.708-9.625      l-3.833,9.583L18.27,46.787h-1.134L16.771,35.87l3.5-13.208L29.913,21.468z" fill="#B9D4FF"/></g><g><g><g><path d="M18.27,46.787v1.832h-2.319c-0.306,0-0.553-0.246-0.553-0.553c0-0.201,0.11-0.387,0.287-0.483        l1.451-0.797H18.27z" fill="#5586FF"/></g></g></g><g><g><g><path d="M30.979,46.787v1.832h-2.319c-0.306,0-0.553-0.246-0.553-0.553c0-0.201,0.11-0.387,0.287-0.483        l1.451-0.797H30.979z" fill="#5586FF"/></g></g></g></g><g><path d="M33.496,15.999l-4.46-6.955c-0.361-0.563-0.981-0.909-1.65-0.92l-6.482-0.108     c-0.853-0.014-1.62,0.514-1.912,1.315l-3.054,8.388c-0.037,0.103-0.048,0.22-0.024,0.335c0.069,0.332,0.394,0.545,0.726,0.476     l0.023-0.005l3.327-0.69l0.25,4.828l9.642-1.194l-0.466-4.364l3.718-0.396l0.026-0.003c0.068-0.008,0.136-0.031,0.198-0.07     C33.571,16.498,33.634,16.213,33.496,15.999z M18.799,16.471l1.018-1.961l0.099,1.915L18.799,16.471z M29.084,14.003l1.338,1.493     l-1.141,0.354L29.084,14.003z" fill="#FF6161"/></g><g><rect fill="#B9D4FF" height="8.228" transform="matrix(1 -0.0076 0.0076 1 -0.1188 0.1894)" width="6.259" x="21.604" y="11.527"/></g><g><rect fill="#FFFFFF" height="8.228" transform="matrix(0.9839 -0.179 0.179 0.9839 -2.3998 4.6796)" width="6.259" x="21.605" y="11.526"/></g><g><g><path d="M24.28,15.77c0.109,0.379,0.071,0.796-0.049,1.22c-0.027,0.063-0.073,0.103-0.14,0.12l-0.588,0.193      l-0.953-0.134l-0.134-0.821l0.741-0.485l0.894-0.216C24.157,15.619,24.243,15.681,24.28,15.77z" fill="#FECB00"/></g></g><g><g><path d="M25.85,16.087c-0.045,0.392,0.06,0.797,0.249,1.195c0.037,0.058,0.089,0.09,0.158,0.096l0.612,0.094      l0.918-0.289l-0.003-0.832l-0.811-0.357l-0.917-0.066C25.946,15.918,25.871,15.993,25.85,16.087z" fill="#FECB00"/></g></g><g><g><path d="M32.712,14.735h-2.938l0.682,0.759l-2.824,0.735l0.057,1.048l5.477-0.573h0.02      c0.07-0.01,0.14-0.03,0.2-0.07c0.22-0.14,0.28-0.42,0.14-0.63L32.712,14.735z" fill="#FF6161"/><path d="M18.826,16.474l0.903-1.739h-2.675l-1.088,2.979c-0.03,0.11-0.04,0.22-0.02,0.34      c0.07,0.33,0.39,0.54,0.73,0.48l0.02-0.01l6.02-1.25l-0.244-1.064L18.826,16.474z" fill="#FF6161"/></g></g></g><g><path d="M29.959,15.639l-1.823-7.356c-0.29-0.184-0.658-0.22-1.074-0.165l2.219,7.732L29.959,15.639z" fill="#ECF1F8"/></g></g></svg>