<?xml version="1.0" ?><svg id="Layer_1" style="enable-background:new 0 0 100 100;" version="1.1" viewBox="0 0 100 100" xml:space="preserve" xmlns="http://www.w3.org/2000/svg" xmlns:xlink="http://www.w3.org/1999/xlink"><style type="text/css">
	.st0{fill:#FBD140;}
	.st1{fill:#FBB040;}
	.st2{fill:#ADD8C9;}
	.st3{fill:#76D397;}
	.st4{fill:#9ED8A9;}
	.st5{fill:#CC997C;}
	.st6{fill:#FFBE8F;}
	.st7{fill:#E1ECFF;}
	.st8{fill:#AABFFF;}
	.st9{fill:#DA1C39;}
	.st10{fill:#CC6C4D;}
	.st11{fill:#B5E9F1;}
	.st12{fill:#F2AD9A;}
	.st13{fill:#F2979A;}
	.st14{fill:#AEE571;}
	.st15{fill:#8DC63F;}
</style><g><g><path class="st11" d="M82.4472656,51.7646484c-0.0100098,0.1849365-0.0252075,0.367981-0.0383911,0.5518799    C82.3925171,52.5460205,82.368042,52.7722778,82.3467407,53H73.25c-2.2060547,0-4-1.7939453-4-4v-4    c0-1.8789063-0.7304688-3.6367188-2.0527344-4.9472656C65.8740234,38.7285156,64.1162109,38,62.25,38    c-1.0683594,0-2.0703125-0.4140625-2.8232422-1.1669922C58.6679688,36.0742188,58.25,35.0683594,58.25,34    c0-2.2060547,1.7939453-4,4-4h13.3582153c0.0391235,0.0499878,0.0773926,0.1004028,0.1161499,0.1505737    c0.4963379,0.6417236,0.968689,1.2963257,1.4121704,1.96521c0.0546875,0.0824585,0.1069336,0.1660156,0.1607666,0.2489014    c0.4408569,0.6781006,0.8571777,1.368103,1.2434082,2.0716553c0.0429077,0.078125,0.0831299,0.1574097,0.1253052,0.2358398    c0.3840942,0.7136841,0.743042,1.4384155,1.0705566,2.1757202c0.0324707,0.0730591,0.0621338,0.1472168,0.0940552,0.220459    c0.3254395,0.7477417,0.6248779,1.5057373,0.8916626,2.2752686c0.0227661,0.0656738,0.0427246,0.1322632,0.0650635,0.1980591    c0.2650757,0.78125,0.5031128,1.5718994,0.7072144,2.3731689c0.0141602,0.055542,0.0256958,0.1118774,0.0395508,0.1674805    c0.2029419,0.8148804,0.3771973,1.6384888,0.5163574,2.4714966c0.006897,0.0415649,0.0117798,0.0836792,0.0185547,0.1253052    c0.1384277,0.8493042,0.2462769,1.706665,0.317627,2.5722046c0.0019531,0.0238647,0.0025024,0.0479126,0.0044556,0.0717773    C82.4621582,48.2081909,82.5,49.100647,82.5,50C82.5,50.5907593,82.4789429,51.1792603,82.4472656,51.7646484z"/><path class="st3" d="M17.5884399,47.5982056c0.0199585-0.2733154,0.0614014-0.5425415,0.0881348-0.8146362    c0.0510864-0.5205688,0.0975342-1.0420532,0.1732178-1.5576172c0.0473633-0.3222656,0.1175537-0.6390381,0.1744385-0.9591675    c0.081665-0.4598389,0.156189-0.9214478,0.2575073-1.3763428c0.0756226-0.3396606,0.1738281-0.6730347,0.2602539-1.0097656    c0.1098633-0.4277344,0.2123413-0.8574829,0.3395386-1.2799683c0.104248-0.3463745,0.2303467-0.6856689,0.3461914-1.0282593    c0.1367798-0.4044189,0.2667847-0.8110962,0.4195557-1.2098389c0.131958-0.3442993,0.2844238-0.6807251,0.4282227-1.0205078    c0.1640625-0.3876343,0.3222656-0.7775879,0.5016479-1.1590576c0.1585693-0.3371582,0.3363037-0.6658325,0.5067749-0.9978638    c0.1914063-0.3728027,0.3778687-0.7478027,0.5841675-1.1137695c0.1846924-0.3276978,0.3873291-0.6465454,0.5838623-0.9685059    c0.1744995-0.2857666,0.3482666-0.5718384,0.5320435-0.8529053h2.7960815C31.7392578,32.25,36.75,37.2607422,36.75,43.4199219    v8.75C36.75,54.6953125,38.8046875,56.75,41.3300781,56.75h2.25C45.6035156,56.75,47.25,58.3964844,47.25,60.4199219v4.9599609    C47.25,65.9970703,46.7475586,66.5,46.1201172,66.5C45.5024414,66.5,45,65.9970703,45,65.3798828v-3.3398438    C45,60.7773438,43.9726563,59.75,42.7099609,59.75H31.5c-2.6191406,0-4.75-2.1308594-4.75-4.75v-0.3798828    C26.75,52.6240234,25.121582,51,23.1201172,51h-5.5901489C17.5196533,50.6663818,17.5,50.3348389,17.5,50    C17.5,49.1953125,17.5303955,48.3944092,17.5884399,47.5982056z"/><path class="st3" d="M68.0986328,76.9888306c-0.1394043,0.0936279-0.2830811,0.1799316-0.4238281,0.2713623    c-0.411438,0.267334-0.8273315,0.5272217-1.2498779,0.7753296c-0.1954346,0.1147461-0.3931274,0.2254028-0.5908203,0.3359375    c-0.390686,0.2185669-0.7859497,0.4284058-1.1849976,0.6304321c-0.1959229,0.0991821-0.3911133,0.2000122-0.5889893,0.295166    c-0.4833984,0.2324829-0.9728394,0.4516602-1.467041,0.65979c-0.1087646,0.0458374-0.2151489,0.097168-0.3244019,0.1417847    c-0.6027832,0.2461548-1.2139282,0.4717407-1.8308716,0.6811523c-0.1721802,0.0584717-0.3471069,0.1091309-0.5203247,0.1646729    c-0.4555054,0.1460571-0.9137573,0.2841187-1.3758545,0.4098511c-0.2151489,0.0585327-0.4312134,0.1135864-0.647644,0.1676636    c-0.1868286,0.0466919-0.3760986,0.0842285-0.5639038,0.1275635v-3.2794189c0-1.2128906,0.9912109-2.2001953,2.2099609-2.2001953    h0.3398438c0.8652344,0,1.6884766-0.3388672,2.3359375-0.9707031c0.6152344-0.6308594,0.9541016-1.4580078,0.9541016-2.3291016    c0-1.2128906,0.9873047-2.2001953,2.2099609-2.2001953c1.2128906,0,2.2001953,0.9873047,2.2001953,2.2001953    c0,1.3677368,0.8342285,2.5441895,2.0194092,3.0438232C69.1083374,76.2861328,68.6087646,76.6459961,68.0986328,76.9888306z"/><path class="st8" d="M71.7104492,74.1699219h-0.840332c-0.7109375,0-1.2900391-0.5830078-1.2900391-1.2998047    c0-2.3164063-1.8837891-4.2001953-4.2099609-4.2001953c-2.3164063,0-4.2001953,1.8837891-4.2001953,4.2001953    c0,0.3408203-0.140625,0.6806641-0.3691406,0.9140625c-0.2539063,0.2490234-0.5810547,0.3857422-0.9208984,0.3857422h-0.3398438    c-2.3212891,0-4.2099609,1.8837891-4.2099609,4.2001953v3.6827393C53.5609741,82.3436279,51.7730713,82.5,50,82.5    c-16.8304443,0-30.8356934-12.8735962-32.3537598-29.5h5.473877C24.019043,53,24.75,53.7265625,24.75,54.6201172V55    c0,3.7216797,3.027832,6.75,6.75,6.75h11.2099609C42.8671875,61.75,43,61.8828125,43,62.0400391v3.3398438    C43,67.1005859,44.3999023,68.5,46.1298828,68.5C47.8500977,68.5,49.25,67.1005859,49.25,65.3798828v-4.9599609    C49.25,57.2939453,46.706543,54.75,43.5800781,54.75h-2.25C39.9072266,54.75,38.75,53.5927734,38.75,52.1699219v-8.75    C38.75,36.1582031,32.8417969,30.25,25.5800781,30.25h-1.3931885C30.333374,22.2331543,39.8439331,17.5,50,17.5    c9.1615601,0,17.7578735,3.8046265,23.9108276,10.5H62.25c-3.3085938,0-6,2.6914063-6,6    c0,1.6025391,0.6259766,3.1103516,1.7626953,4.2470703C59.1425781,39.3779297,60.6474609,40,62.25,40    c1.3320313,0,2.5869141,0.5205078,3.5361328,1.4697266C66.7304688,42.4052734,67.25,43.6591797,67.25,45v4    c0,3.3085938,2.6914063,6,6,6h8.8574829C80.967041,62.3884888,77.307312,69.1460571,71.7104492,74.1699219z"/></g><g><path d="M84.0102539,44.1340332c-0.9749756-5.7507935-3.392334-11.1181641-7.1313477-15.7609863    c-0.0007935-0.0010376-0.0021362-0.0013428-0.0029907-0.0023804C70.2851563,20.1904297,60.4891968,15.5,50,15.5    c-11.4638672,0-22.1542969,5.6777344-28.5981445,15.1894531C17.5410156,36.3955078,15.5,43.0722656,15.5,50    c0,0.6904297,0.0205078,1.3808594,0.0615234,2.0585938C16.6279297,70.25,31.7548828,84.5,50,84.5    c2.1699219,0,4.3623047-0.2080078,6.5175781-0.6171875c1.5021973-0.2871094,2.9798584-0.6744995,4.4235229-1.1575317    c4.3308716-1.4490356,8.3555298-3.758728,11.817688-6.8034058C79.1679688,70.2978516,83.25,62.5546875,84.2519531,54.1210938    C84.4169922,52.7773438,84.5,51.3916016,84.5,50C84.5,48.010498,84.3352661,46.0509644,84.0102539,44.1340332z     M82.4472656,51.7646484c-0.0100098,0.1849365-0.0252075,0.367981-0.0383911,0.5518799    C82.3925171,52.5460205,82.368042,52.7722778,82.3467407,53H73.25c-2.2060547,0-4-1.7939453-4-4v-4    c0-1.8789063-0.7304688-3.6367188-2.0527344-4.9472656C65.8740234,38.7285156,64.1162109,38,62.25,38    c-1.0683594,0-2.0703125-0.4140625-2.8232422-1.1669922C58.6679688,36.0742188,58.25,35.0683594,58.25,34    c0-2.2060547,1.7939453-4,4-4h13.3582153c0.0391235,0.0499878,0.0773926,0.1004028,0.1161499,0.1505737    c0.4963379,0.6417236,0.968689,1.2963257,1.4121704,1.96521c0.0546875,0.0824585,0.1069336,0.1660156,0.1607666,0.2489014    c0.4408569,0.6781006,0.8571777,1.368103,1.2434082,2.0716553c0.0429077,0.078125,0.0831299,0.1574097,0.1253052,0.2358398    c0.3840942,0.7136841,0.743042,1.4384155,1.0705566,2.1757202c0.0324707,0.0730591,0.0621338,0.1472168,0.0940552,0.220459    c0.3254395,0.7477417,0.6248779,1.5057373,0.8916626,2.2752686c0.0227661,0.0656738,0.0427246,0.1322632,0.0650635,0.1980591    c0.2650757,0.78125,0.5031128,1.5718994,0.7072144,2.3731689c0.0141602,0.055542,0.0256958,0.1118774,0.0395508,0.1674805    c0.2029419,0.8148804,0.3771973,1.6384888,0.5163574,2.4714966c0.006897,0.0415649,0.0117798,0.0836792,0.0185547,0.1253052    c0.1384277,0.8493042,0.2462769,1.706665,0.317627,2.5722046c0.0019531,0.0238647,0.0025024,0.0479126,0.0044556,0.0717773    C82.4621582,48.2081909,82.5,49.100647,82.5,50C82.5,50.5907593,82.4789429,51.1792603,82.4472656,51.7646484z     M17.5884399,47.5982056c0.0199585-0.2733154,0.0614014-0.5425415,0.0881348-0.8146362    c0.0510864-0.5205688,0.0975342-1.0420532,0.1732178-1.5576172c0.0473633-0.3222656,0.1175537-0.6390381,0.1744385-0.9591675    c0.081665-0.4598389,0.156189-0.9214478,0.2575073-1.3763428c0.0756226-0.3396606,0.1738281-0.6730347,0.2602539-1.0097656    c0.1098633-0.4277344,0.2123413-0.8574829,0.3395386-1.2799683c0.104248-0.3463745,0.2303467-0.6856689,0.3461914-1.0282593    c0.1367798-0.4044189,0.2667847-0.8110962,0.4195557-1.2098389c0.131958-0.3442993,0.2844238-0.6807251,0.4282227-1.0205078    c0.1640625-0.3876343,0.3222656-0.7775879,0.5016479-1.1590576c0.1585693-0.3371582,0.3363037-0.6658325,0.5067749-0.9978638    c0.1914063-0.3728027,0.3778687-0.7478027,0.5841675-1.1137695c0.1846924-0.3276978,0.3873291-0.6465454,0.5838623-0.9685059    c0.1744995-0.2857666,0.3482666-0.5718384,0.5320435-0.8529053h2.7960815C31.7392578,32.25,36.75,37.2607422,36.75,43.4199219    v8.75C36.75,54.6953125,38.8046875,56.75,41.3300781,56.75h2.25C45.6035156,56.75,47.25,58.3964844,47.25,60.4199219v4.9599609    C47.25,65.9970703,46.7475586,66.5,46.1201172,66.5C45.5024414,66.5,45,65.9970703,45,65.3798828v-3.3398438    C45,60.7773438,43.9726563,59.75,42.7099609,59.75H31.5c-2.6191406,0-4.75-2.1308594-4.75-4.75v-0.3798828    C26.75,52.6240234,25.121582,51,23.1201172,51h-5.5901489C17.5196533,50.6663818,17.5,50.3348389,17.5,50    C17.5,49.1953125,17.5303955,48.3944092,17.5884399,47.5982056z M68.0986328,76.9888306    c-0.1394043,0.0936279-0.2830811,0.1799316-0.4238281,0.2713623c-0.411438,0.267334-0.8273315,0.5272217-1.2498779,0.7753296    c-0.1954346,0.1147461-0.3931274,0.2254028-0.5908203,0.3359375c-0.390686,0.2185669-0.7859497,0.4284058-1.1849976,0.6304321    c-0.1959229,0.0991821-0.3911133,0.2000122-0.5889893,0.295166c-0.4833984,0.2324829-0.9728394,0.4516602-1.467041,0.65979    c-0.1087646,0.0458374-0.2151489,0.097168-0.3244019,0.1417847c-0.6027832,0.2461548-1.2139282,0.4717407-1.8308716,0.6811523    c-0.1721802,0.0584717-0.3471069,0.1091309-0.5203247,0.1646729c-0.4555054,0.1460571-0.9137573,0.2841187-1.3758545,0.4098511    c-0.2151489,0.0585327-0.4312134,0.1135864-0.647644,0.1676636c-0.1868286,0.0466919-0.3760986,0.0842285-0.5639038,0.1275635    v-3.2794189c0-1.2128906,0.9912109-2.2001953,2.2099609-2.2001953h0.3398438c0.8652344,0,1.6884766-0.3388672,2.3359375-0.9707031    c0.6152344-0.6308594,0.9541016-1.4580078,0.9541016-2.3291016c0-1.2128906,0.9873047-2.2001953,2.2099609-2.2001953    c1.2128906,0,2.2001953,0.9873047,2.2001953,2.2001953c0,1.3677368,0.8342285,2.5441895,2.0194092,3.0438232    C69.1083374,76.2861328,68.6087646,76.6459961,68.0986328,76.9888306z M71.7104492,74.1699219h-0.840332    c-0.7109375,0-1.2900391-0.5830078-1.2900391-1.2998047c0-2.3164063-1.8837891-4.2001953-4.2099609-4.2001953    c-2.3164063,0-4.2001953,1.8837891-4.2001953,4.2001953c0,0.3408203-0.140625,0.6806641-0.3691406,0.9140625    c-0.2539063,0.2490234-0.5810547,0.3857422-0.9208984,0.3857422h-0.3398438c-2.3212891,0-4.2099609,1.8837891-4.2099609,4.2001953    v3.6827393C53.5609741,82.3436279,51.7730713,82.5,50,82.5c-16.8304443,0-30.8356934-12.8735962-32.3537598-29.5h5.473877    C24.019043,53,24.75,53.7265625,24.75,54.6201172V55c0,3.7216797,3.027832,6.75,6.75,6.75h11.2099609    C42.8671875,61.75,43,61.8828125,43,62.0400391v3.3398438C43,67.1005859,44.3999023,68.5,46.1298828,68.5    C47.8500977,68.5,49.25,67.1005859,49.25,65.3798828v-4.9599609C49.25,57.2939453,46.706543,54.75,43.5800781,54.75h-2.25    C39.9072266,54.75,38.75,53.5927734,38.75,52.1699219v-8.75C38.75,36.1582031,32.8417969,30.25,25.5800781,30.25h-1.3931885    C30.333374,22.2331543,39.8439331,17.5,50,17.5c9.1615601,0,17.7578735,3.8046265,23.9108276,10.5H62.25    c-3.3085938,0-6,2.6914063-6,6c0,1.6025391,0.6259766,3.1103516,1.7626953,4.2470703    C59.1425781,39.3779297,60.6474609,40,62.25,40c1.3320313,0,2.5869141,0.5205078,3.5361328,1.4697266    C66.7304688,42.4052734,67.25,43.6591797,67.25,45v4c0,3.3085938,2.6914063,6,6,6h8.8574829    C80.967041,62.3884888,77.307312,69.1460571,71.7104492,74.1699219z"/><path d="M76.8095703,37.6533203c-0.2314453-0.5009766-0.8261719-0.7207031-1.3271484-0.4873047    c-0.5009766,0.2314453-0.7197266,0.8261719-0.4873047,1.3271484c1.5263672,3.2978516,2.3632813,6.8447266,2.4892578,10.5410156    C77.5019531,49.5742188,77.9462891,50,78.4824219,50c0.0117188,0,0.0234375,0,0.0351563-0.0009766    c0.5517578-0.0185547,0.984375-0.4804688,0.9648438-1.0332031C79.3486328,45.0019531,78.4492188,41.1953125,76.8095703,37.6533203    z"/><path d="M74.9374924,34.2294922c-0.1699142-0.265625-0.3437424-0.5302734-0.5224533-0.7919922    c-0.3095703-0.4560547-0.9316406-0.5771484-1.3886719-0.2636719c-0.4570313,0.3105469-0.5751953,0.9326172-0.2636719,1.3886719    c0.1669922,0.2460938,0.3310547,0.4951172,0.4912109,0.7451172c0.1904297,0.2978516,0.5126953,0.4609375,0.8427734,0.4609375    c0.1845703,0,0.3710938-0.0507813,0.5380859-0.1582031C75.0996094,35.3134766,75.2353516,34.6943359,74.9374924,34.2294922z"/><path d="M32.75,49.875c-0.5522461,0-1,0.4472656-1,1v1.2949219c0,0.5527344,0.4477539,1,1,1s1-0.4472656,1-1V50.875    C33.75,50.3222656,33.3022461,49.875,32.75,49.875z"/><path d="M27.3149414,37.4980469c0.2226563,0.0654297,0.4399414,0.1435547,0.6484375,0.2304688    C30.2636719,38.6962891,31.75,40.9296875,31.75,43.4199219V46.75c0,0.5527344,0.4477539,1,1,1s1-0.4472656,1-1v-3.3300781    c0-3.296875-1.9667969-6.2548828-5.0141602-7.5361328c-0.2807617-0.1171875-0.5683594-0.2207031-0.8632813-0.3056641    c-0.5292969-0.1572266-1.0854492,0.1513672-1.2392578,0.6806641    C26.4794922,36.7890625,26.7841797,37.3447266,27.3149414,37.4980469z"/></g></g></svg>